<?xml version="1.0" encoding="utf-8"?>
<!-- Generator: Adobe Illustrator 28.0.0, SVG Export Plug-In . SVG Version: 6.00 Build 0)  -->
<svg version="1.1" id="Capa_1" xmlns="http://www.w3.org/2000/svg" xmlns:xlink="http://www.w3.org/1999/xlink" x="0px" y="0px"
	 viewBox="0 0 1240 701" style="enable-background:new 0 0 1240 701;" xml:space="preserve">
<style type="text/css">
	.st0{fill:#F6F6F6;}
	.st1{fill:#73964A;}
	.st2{fill:#C7D5B6;}
	.st3{fill:#FFCE79;}
	.st4{fill:#FFFFFF;}
	.st5{font-family:'Roboto-Bold';}
	.st6{font-size:20px;}
	.st7{fill:#12263F;}
	.st8{font-size:16px;}
	.st9{font-family:'Roboto-Regular';}
	.st10{fill:none;stroke:#283F65;stroke-width:2;}
	.st11{clip-path:url(#SVGID_00000081621236329935192770000006819858457494733727_);}
	.st12{fill:none;stroke:#283F65;stroke-width:2;stroke-miterlimit:10;}
	.st13{clip-path:url(#SVGID_00000168086272900921844670000002284980486746112685_);}
	.st14{clip-path:url(#SVGID_00000008842476209769709740000007976407870653820063_);}
	.st15{clip-path:url(#SVGID_00000083800133663181505820000007836191379996187801_);}
	.st16{clip-path:url(#SVGID_00000174589445891905149900000007899844182846371731_);}
	.st17{clip-path:url(#SVGID_00000005949209106885625650000011586674211235556492_);}
	.st18{clip-path:url(#SVGID_00000057857355489703119530000002648356054057416356_);}
	.st19{clip-path:url(#SVGID_00000021802377741689264710000010709044774877011630_);}
	.st20{clip-path:url(#SVGID_00000133491213592201126550000001678856375851980980_);}
	.st21{fill:none;stroke:#12263F;stroke-width:2;}
	.st22{fill:#E6F1E8;}
	.st23{clip-path:url(#SVGID_00000155118357722972415710000010892138965449184447_);}
	.st24{clip-path:url(#SVGID_00000115493219951630288670000008303539039807493008_);}
	.st25{clip-path:url(#SVGID_00000183222012398794998260000002645541440007626634_);}
	.st26{fill:#F8F3E0;}
	.st27{clip-path:url(#SVGID_00000028288715670193102210000003184796208782060959_);}
	.st28{clip-path:url(#SVGID_00000146486171924180243300000018061680925277134998_);}
	.st29{clip-path:url(#SVGID_00000063626593528437708180000010004339523322712975_);}
	.st30{font-size:14px;}
	.st31{fill:#C1BEBE;}
	.st32{clip-path:url(#SVGID_00000132075987061620350320000009287257543013123208_);}
	.st33{clip-path:url(#SVGID_00000018951912823053190990000003630394346690115493_);}
	.st34{clip-path:url(#SVGID_00000119839855473808678070000009127584638244098449_);}
	.st35{clip-path:url(#SVGID_00000018945570440717787380000010297142188525462932_);}
	.st36{fill:#E0E0E0;}
	.st37{clip-path:url(#SVGID_00000085217603166518797340000011398256261971685812_);}
	.st38{clip-path:url(#SVGID_00000147936793549616371020000002023601570625388685_);}
	.st39{clip-path:url(#SVGID_00000021093626698760340140000002764435128577815426_);}
	.st40{clip-path:url(#SVGID_00000015328782909693884490000004181657689187465148_);}
	.st41{clip-path:url(#SVGID_00000093868161941016193560000016683219695640316852_);}
	.st42{fill:#EAE1C1;}
	.st43{fill:none;stroke:#0F1F33;stroke-width:2;}
</style>
<g id="Grupo_1116858" transform="translate(-180.333 -400.826)">
	<path id="Rectángulo_388651" class="st0" d="M200.3,400.8h1200c11,0,20,9,20,20v661c0,11-9,20-20,20h-1200c-11,0-20-9-20-20v-661
		C180.3,409.8,189.3,400.8,200.3,400.8z"/>
	<path id="Rectángulo_402642" class="st1" d="M541.5,447.7h405c6.1,0,11,4.9,11,11v35c0,6.1-4.9,11-11,11h-405c-6.1,0-11-4.9-11-11
		v-35C530.5,452.6,535.4,447.7,541.5,447.7z"/>
	<path id="Rectángulo_402643" class="st2" d="M207,590.2h186.1c6.1,0,11,4.9,11,11v24.6c0,6.1-4.9,11-11,11H207
		c-6.1,0-11-4.9-11-11v-24.6C196,595.1,200.9,590.2,207,590.2z"/>
	<path id="Rectángulo_403194" class="st3" d="M721.7,588h272.1c6.1,0,11,4.9,11,11v24.6c0,6.1-4.9,11-11,11H721.7
		c-6.1,0-11-4.9-11-11V599C710.7,593,715.6,588,721.7,588z"/>
	<text transform="matrix(1 0 0 1 557.481 483.697)" class="st4 st5 st6">Generalidades, preparación de conservas</text>
	<text transform="matrix(1 0 0 1 226.34 610.553)" class="st7 st5 st8">Características de la</text>
	<text transform="matrix(1 0 0 1 249.68 628.553)" class="st7 st5 st8">materia prima</text>
	<text transform="matrix(1 0 0 1 244.84 665.838)" class="st7 st9 st8">Se compone de</text>
	<text transform="matrix(1 0 0 1 802.88 663.736)" class="st7 st9 st8">Se debe realizar</text>
	<g id="Grupo_1102562" transform="translate(-516.121 1342.166) rotate(-90)">
		<path id="Trazado_873496" class="st10" d="M792.3,814.7v980.2"/>
	</g>
	<g id="Grupo_1102563" transform="translate(-51.244 -305.504)">
		<path id="Trazado_873496-2" class="st10" d="M792.3,814.7v38.7"/>
	</g>
	<g id="Grupo_1102564" transform="translate(-492.113 -355.184)">
		<path id="Trazado_873496-3" class="st10" d="M792.3,906.7v29.8"/>
		<g id="Grupo_1099075" transform="translate(781.669 920.685)">
			<g>
				<defs>
					<rect id="SVGID_1_" x="0" y="0" width="21.3" height="18.8"/>
				</defs>
				<clipPath id="SVGID_00000009562711063577771520000006580813134424991121_">
					<use xlink:href="#SVGID_1_"  style="overflow:visible;"/>
				</clipPath>
				<g id="Grupo_1099074" style="clip-path:url(#SVGID_00000009562711063577771520000006580813134424991121_);">
					<path id="Trazado_873497" class="st12" d="M21,0.6c-6.4,3.8-10.3,10.8-10.3,18.2c0-7.5-3.9-14.4-10.3-18.2"/>
				</g>
			</g>
		</g>
	</g>
	<g id="Grupo_1100905" transform="translate(-562.004 -105.747)">
		<path id="Trazado_873496-4" class="st10" d="M792.3,814.7V975"/>
	</g>
	<g id="Grupo_1100909" transform="translate(-698.623 1509.043) rotate(-90)">
		<path id="Trazado_873496-5" class="st10" d="M792.3,928.4V947"/>
		<g id="Grupo_1099075-2" transform="translate(785.085 934.228)">
			<g>
				<defs>
					<rect id="SVGID_00000096771223968563684320000011586131548453332127_" x="0.9" y="-0.9" width="12.8" height="14.5"/>
				</defs>
				<clipPath id="SVGID_00000069378858657201603640000014288330501027867537_">
					<use xlink:href="#SVGID_00000096771223968563684320000011586131548453332127_"  style="overflow:visible;"/>
				</clipPath>
				
					<g id="Grupo_1099074-2" transform="translate(0 0)" style="clip-path:url(#SVGID_00000069378858657201603640000014288330501027867537_);">
					<path id="Trazado_873497-2" class="st12" d="M14.3,0.4c-4.4,2.6-7,7.3-7,12.4c0-5.1-2.7-9.8-7-12.4"/>
				</g>
			</g>
		</g>
	</g>
	<g id="Grupo_1116787" transform="translate(-479.874 1509.043) rotate(-90)">
		<path id="Trazado_873496-6" class="st10" d="M792.3,928.4V947"/>
		<g id="Grupo_1099075-3" transform="translate(785.085 934.228)">
			<g>
				<defs>
					<rect id="SVGID_00000137093991303756223900000017403956029302950308_" x="0.9" y="-0.9" width="12.8" height="14.5"/>
				</defs>
				<clipPath id="SVGID_00000154387884655709156020000013013870809130450327_">
					<use xlink:href="#SVGID_00000137093991303756223900000017403956029302950308_"  style="overflow:visible;"/>
				</clipPath>
				
					<g id="Grupo_1099074-3" transform="translate(0 0)" style="clip-path:url(#SVGID_00000154387884655709156020000013013870809130450327_);">
					<path id="Trazado_873497-3" class="st12" d="M14.3,0.4c-4.4,2.6-7,7.3-7,12.4c0-5.1-2.7-9.8-7-12.4"/>
				</g>
			</g>
		</g>
	</g>
	<g id="Grupo_1103819" transform="translate(-698.623 1654.344) rotate(-90)">
		<path id="Trazado_873496-7" class="st10" d="M792.3,928.4V947"/>
		<g id="Grupo_1099075-4" transform="translate(785.085 934.228)">
			<g>
				<defs>
					<rect id="SVGID_00000116914293579642272690000000565578419243423926_" x="0.9" y="-0.9" width="12.8" height="14.5"/>
				</defs>
				<clipPath id="SVGID_00000176014926119188717600000011386395296508480675_">
					<use xlink:href="#SVGID_00000116914293579642272690000000565578419243423926_"  style="overflow:visible;"/>
				</clipPath>
				
					<g id="Grupo_1099074-4" transform="translate(0 0)" style="clip-path:url(#SVGID_00000176014926119188717600000011386395296508480675_);">
					<path id="Trazado_873497-4" class="st12" d="M14.3,0.4c-4.4,2.6-7,7.3-7,12.4c0-5.1-2.7-9.8-7-12.4"/>
				</g>
			</g>
		</g>
	</g>
	<g id="Grupo_1116788" transform="translate(-479.874 1654.344) rotate(-90)">
		<path id="Trazado_873496-8" class="st10" d="M792.3,928.4V947"/>
		<g id="Grupo_1099075-5" transform="translate(785.085 934.228)">
			<g>
				<defs>
					<rect id="SVGID_00000045582795252082244300000017937731909236810405_" x="0.9" y="-0.9" width="12.8" height="14.5"/>
				</defs>
				<clipPath id="SVGID_00000109718128411780888010000016555694636834657677_">
					<use xlink:href="#SVGID_00000045582795252082244300000017937731909236810405_"  style="overflow:visible;"/>
				</clipPath>
				
					<g id="Grupo_1099074-5" transform="translate(0 0)" style="clip-path:url(#SVGID_00000109718128411780888010000016555694636834657677_);">
					<path id="Trazado_873497-5" class="st12" d="M14.3,0.4c-4.4,2.6-7,7.3-7,12.4c0-5.1-2.7-9.8-7-12.4"/>
				</g>
			</g>
		</g>
	</g>
	<g id="Grupo_1103820" transform="translate(-698.623 1709.344) rotate(-90)">
		<path id="Trazado_873496-9" class="st10" d="M792.3,928.4V947"/>
		<g id="Grupo_1099075-6" transform="translate(785.085 934.228)">
			<g>
				<defs>
					<rect id="SVGID_00000091006632177088651180000015597322480181570479_" x="0.9" y="-0.9" width="12.8" height="14.5"/>
				</defs>
				<clipPath id="SVGID_00000180330277002497490330000017269012350763338116_">
					<use xlink:href="#SVGID_00000091006632177088651180000015597322480181570479_"  style="overflow:visible;"/>
				</clipPath>
				
					<g id="Grupo_1099074-6" transform="translate(0 0)" style="clip-path:url(#SVGID_00000180330277002497490330000017269012350763338116_);">
					<path id="Trazado_873497-6" class="st12" d="M14.3,0.4c-4.4,2.6-7,7.3-7,12.4c0-5.1-2.7-9.8-7-12.4"/>
				</g>
			</g>
		</g>
	</g>
	<g id="Grupo_1116789" transform="translate(-479.874 1709.344) rotate(-90)">
		<path id="Trazado_873496-10" class="st10" d="M792.3,928.4V947"/>
		<g id="Grupo_1099075-7" transform="translate(785.085 934.228)">
			<g>
				<defs>
					<rect id="SVGID_00000150805903642457586910000004052836507167959437_" x="0.9" y="-0.9" width="12.8" height="14.5"/>
				</defs>
				<clipPath id="SVGID_00000102524429399185242060000012493127332120949680_">
					<use xlink:href="#SVGID_00000150805903642457586910000004052836507167959437_"  style="overflow:visible;"/>
				</clipPath>
				
					<g id="Grupo_1099074-7" transform="translate(0 0)" style="clip-path:url(#SVGID_00000102524429399185242060000012493127332120949680_);">
					<path id="Trazado_873497-7" class="st12" d="M14.3,0.4c-4.4,2.6-7,7.3-7,12.4c0-5.1-2.7-9.8-7-12.4"/>
				</g>
			</g>
		</g>
	</g>
	<g id="Grupo_1103818" transform="translate(-698.623 1566.043) rotate(-90)">
		<path id="Trazado_873496-11" class="st10" d="M792.3,928.4V947"/>
		<g id="Grupo_1099075-8" transform="translate(785.085 934.228)">
			<g>
				<defs>
					<rect id="SVGID_00000102538484635602759410000002351268553862285991_" x="0.9" y="-0.9" width="12.8" height="14.5"/>
				</defs>
				<clipPath id="SVGID_00000027569762819321892260000009776259229609321869_">
					<use xlink:href="#SVGID_00000102538484635602759410000002351268553862285991_"  style="overflow:visible;"/>
				</clipPath>
				
					<g id="Grupo_1099074-8" transform="translate(0 0)" style="clip-path:url(#SVGID_00000027569762819321892260000009776259229609321869_);">
					<path id="Trazado_873497-8" class="st12" d="M14.3,0.4c-4.4,2.6-7,7.3-7,12.4c0-5.1-2.7-9.8-7-12.4"/>
				</g>
			</g>
		</g>
	</g>
	<g id="Grupo_1116790" transform="translate(-479.874 1567.043) rotate(-90)">
		<path id="Trazado_873496-12" class="st10" d="M792.3,928.4V947"/>
		<g id="Grupo_1099075-9" transform="translate(785.085 934.228)">
			<g>
				<defs>
					<rect id="SVGID_00000072251680549626739030000018080088856868724625_" x="0.9" y="-0.9" width="12.8" height="14.5"/>
				</defs>
				<clipPath id="SVGID_00000007405796617666219650000009253537615970421381_">
					<use xlink:href="#SVGID_00000072251680549626739030000018080088856868724625_"  style="overflow:visible;"/>
				</clipPath>
				
					<g id="Grupo_1099074-9" transform="translate(0 0)" style="clip-path:url(#SVGID_00000007405796617666219650000009253537615970421381_);">
					<path id="Trazado_873497-9" class="st12" d="M14.3,0.4c-4.4,2.6-7,7.3-7,12.4c0-5.1-2.7-9.8-7-12.4"/>
				</g>
			</g>
		</g>
	</g>
	<g id="Grupo_1103851" transform="translate(212.099 693.355)">
		<text transform="matrix(1 0 0 1 576.5341 -77.63)" class="st7 st5 st8">Aspectos higiénicos</text>
	</g>
	<path id="Trazado_874380" class="st10" d="M298.5,672.8v10h-68.2v33.7"/>
	<path id="Trazado_876481" class="st10" d="M857.9,670.7v7.5H737v191.1"/>
	<path id="Trazado_875300" class="st21" d="M298.5,636.7v10.4"/>
	<path id="Trazado_876482" class="st21" d="M858,634.6v10.4"/>
	<path id="Rectángulo_403162" class="st22" d="M266,695.5h169.7c6.1,0,11,4.9,11,11v27.4c0,6.1-4.9,11-11,11H266
		c-6.1,0-11-4.9-11-11v-27.4C255,700.4,259.9,695.5,266,695.5z"/>
	<path id="Rectángulo_409542" class="st22" d="M484.7,695.5h197.7c6.1,0,11,4.9,11,11v27.4c0,6.1-4.9,11-11,11H484.7
		c-6.1,0-11-4.9-11-11v-27.4C473.7,700.4,478.7,695.5,484.7,695.5z"/>
	<path id="Rectángulo_409544" class="st22" d="M484.7,840.8h197.7c6.1,0,11,4.9,11,11v27.4c0,6.1-4.9,11-11,11H484.7
		c-6.1,0-11-4.9-11-11v-27.4C473.7,845.7,478.7,840.8,484.7,840.8z"/>
	<path id="Rectángulo_409545" class="st22" d="M484.7,897.3h197.7c6.1,0,11,4.9,11,11v27.4c0,6.1-4.9,11-11,11H484.7
		c-6.1,0-11-4.9-11-11v-27.4C473.7,902.2,478.7,897.3,484.7,897.3z"/>
	<path id="Rectángulo_409543" class="st22" d="M484.7,750.7h197.7c6.1,0,11,4.9,11,11v63.1c0,6.1-4.9,11-11,11H484.7
		c-6.1,0-11-4.9-11-11v-63.1C473.7,755.7,478.7,750.7,484.7,750.7z"/>
	<path id="Rectángulo_403164" class="st22" d="M266,840.8h169.7c6.1,0,11,4.9,11,11v27.4c0,6.1-4.9,11-11,11H266
		c-6.1,0-11-4.9-11-11v-27.4C255,845.7,259.9,840.8,266,840.8z"/>
	<path id="Rectángulo_403165" class="st22" d="M266,895.8h169.7c6.1,0,11,4.9,11,11v27.4c0,6.1-4.9,11-11,11H266
		c-6.1,0-11-4.9-11-11v-27.4C255,900.7,259.9,895.8,266,895.8z"/>
	<path id="Rectángulo_403163" class="st22" d="M266,750.5h169.7c6.1,0,11,4.9,11,11v27.7c0,6.1-4.9,11-11,11H266
		c-6.1,0-11-4.9-11-11v-27.7C255,755.4,259.9,750.5,266,750.5z"/>
	<text transform="matrix(1 0 0 1 262 723.462)" class="st7 st9 st8">Componentes básicos</text>
	<text transform="matrix(1 0 0 1 262 861.763)" class="st7 st9 st8">Clasificación de </text>
	<text transform="matrix(1 0 0 1 262 879.763)" class="st7 st9 st8">verduras</text>
	<text transform="matrix(1 0 0 1 262 916.763)" class="st7 st9 st8">Sustancias bioactivas</text>
	<text transform="matrix(1 0 0 1 262 779.462)" class="st7 st9 st8">Clasificación de frutas</text>
	<g id="Grupo_1103853" transform="translate(-192 1549.948) rotate(-90)">
		<path id="Trazado_873496-13" class="st10" d="M792.3,928.4V947"/>
		<g id="Grupo_1099075-10" transform="translate(785.085 934.228)">
			<g>
				<defs>
					<rect id="SVGID_00000161623495584634745350000012783286747457130162_" x="0.9" y="-0.9" width="12.8" height="14.5"/>
				</defs>
				<clipPath id="SVGID_00000128486589110123232480000002681697695328060090_">
					<use xlink:href="#SVGID_00000161623495584634745350000012783286747457130162_"  style="overflow:visible;"/>
				</clipPath>
				
					<g id="Grupo_1099074-10" transform="translate(0 0)" style="clip-path:url(#SVGID_00000128486589110123232480000002681697695328060090_);">
					<path id="Trazado_873497-10" class="st12" d="M14.3,0.4c-4.4,2.6-7,7.3-7,12.4c0-5.1-2.7-9.8-7-12.4"/>
				</g>
			</g>
		</g>
	</g>
	<g id="Grupo_1103861" transform="translate(-192 1592.954) rotate(-90)">
		<path id="Trazado_873496-14" class="st10" d="M792.3,928.4V947"/>
		<g id="Grupo_1099075-11" transform="translate(785.085 934.228)">
			<g>
				<defs>
					<rect id="SVGID_00000044874038004197026780000016620747845785387948_" x="0.9" y="-0.9" width="12.8" height="14.5"/>
				</defs>
				<clipPath id="SVGID_00000081622511620982396780000005512515888317040527_">
					<use xlink:href="#SVGID_00000044874038004197026780000016620747845785387948_"  style="overflow:visible;"/>
				</clipPath>
				
					<g id="Grupo_1099074-11" transform="translate(0 0)" style="clip-path:url(#SVGID_00000081622511620982396780000005512515888317040527_);">
					<path id="Trazado_873497-11" class="st12" d="M14.3,0.4c-4.4,2.6-7,7.3-7,12.4c0-5.1-2.7-9.8-7-12.4"/>
				</g>
			</g>
		</g>
	</g>
	<g id="Grupo_1103862" transform="translate(-192 1661.104) rotate(-90)">
		<path id="Trazado_873496-15" class="st10" d="M792.3,928.4V947"/>
		<g id="Grupo_1099075-12" transform="translate(785.085 934.228)">
			<g>
				<defs>
					<rect id="SVGID_00000033365749413914891300000013570819030398076849_" x="0.9" y="-0.9" width="12.8" height="14.5"/>
				</defs>
				<clipPath id="SVGID_00000070836910997609678400000010127127682611857080_">
					<use xlink:href="#SVGID_00000033365749413914891300000013570819030398076849_"  style="overflow:visible;"/>
				</clipPath>
				
					<g id="Grupo_1099074-12" transform="translate(0 0)" style="clip-path:url(#SVGID_00000070836910997609678400000010127127682611857080_);">
					<path id="Trazado_873497-12" class="st12" d="M14.3,0.4c-4.4,2.6-7,7.3-7,12.4c0-5.1-2.7-9.8-7-12.4"/>
				</g>
			</g>
		</g>
	</g>
	<path id="Rectángulo_403199" class="st26" d="M772.6,693.4h169.7c6.1,0,11,4.9,11,11v16.4c0,6.1-4.9,11-11,11H772.6
		c-6.1,0-11-4.9-11-11v-16.4C761.6,698.3,766.5,693.4,772.6,693.4z"/>
	<text transform="matrix(1 0 0 1 768.624 717.361)" class="st7 st9 st8">Higiene personal</text>
	<g id="Grupo_1103860" transform="translate(-192 1506.942) rotate(-90)">
		<path id="Trazado_873496-16" class="st10" d="M792.3,928.4V947"/>
		<g id="Grupo_1099075-13" transform="translate(785.085 934.228)">
			<g>
				<defs>
					<rect id="SVGID_00000085955664222183996320000018417700957849134520_" x="0.9" y="-0.9" width="12.8" height="14.5"/>
				</defs>
				<clipPath id="SVGID_00000003802181112086301150000010874940879963545766_">
					<use xlink:href="#SVGID_00000085955664222183996320000018417700957849134520_"  style="overflow:visible;"/>
				</clipPath>
				
					<g id="Grupo_1099074-13" transform="translate(0 0)" style="clip-path:url(#SVGID_00000003802181112086301150000010874940879963545766_);">
					<path id="Trazado_873497-13" class="st12" d="M14.3,0.4c-4.4,2.6-7,7.3-7,12.4c0-5.1-2.7-9.8-7-12.4"/>
				</g>
			</g>
		</g>
	</g>
	<path id="Rectángulo_403200" class="st26" d="M772.6,736.4h169.7c6.1,0,11,4.9,11,11v16.4c0,6.1-4.9,11-11,11H772.6
		c-6.1,0-11-4.9-11-11v-16.4C761.6,741.3,766.5,736.4,772.6,736.4z"/>
	<path id="Rectángulo_403201" class="st26" d="M772.6,779.4h169.7c6.1,0,11,4.9,11,11v36.4c0,6.1-4.9,11-11,11H772.6
		c-6.1,0-11-4.9-11-11v-36.4C761.6,784.3,766.5,779.4,772.6,779.4z"/>
	<path id="Rectángulo_403202" class="st26" d="M772.6,847.5h169.7c6.1,0,11,4.9,11,11V895c0,6.1-4.9,11-11,11H772.6
		c-6.1,0-11-4.9-11-11v-36.4C761.6,852.4,766.5,847.5,772.6,847.5z"/>
	<text transform="matrix(1 0 0 1 768.623 760.367)" class="st7 st9 st8">Limpieza y desinfección</text>
	<text transform="matrix(1 0 0 1 768.623 803.373)" class="st7 st9 st8">Requisitos, equipos y </text>
	<text transform="matrix(1 0 0 1 768.623 821.373)" class="st7 st9 st8">utensilios</text>
	<text transform="matrix(1 0 0 1 768.623 871.523)" class="st7 st9 st8">Métodos de </text>
	<text transform="matrix(1 0 0 1 768.623 889.523)" class="st7 st9 st8">conservación</text>
	<g id="Grupo_1116786" transform="translate(65.003 -355.184)">
		<path id="Trazado_873496-17" class="st10" d="M792.3,906.7v29.8"/>
		<g id="Grupo_1099075-14" transform="translate(781.669 920.685)">
			<g>
				<defs>
					<rect id="SVGID_00000021839750400222380720000002871874562310759041_" x="0" y="0" width="21.3" height="18.8"/>
				</defs>
				<clipPath id="SVGID_00000165945543866969309290000003707923215096409489_">
					<use xlink:href="#SVGID_00000021839750400222380720000002871874562310759041_"  style="overflow:visible;"/>
				</clipPath>
				<g id="Grupo_1099074-14" style="clip-path:url(#SVGID_00000165945543866969309290000003707923215096409489_);">
					<path id="Trazado_873497-14" class="st12" d="M21,0.6c-6.4,3.8-10.3,10.8-10.3,18.2c0-7.5-3.9-14.4-10.3-18.2"/>
				</g>
			</g>
		</g>
	</g>
	<g id="Grupo_1116798" transform="translate(486.392 -355.184)">
		<path id="Trazado_873496-18" class="st10" d="M792.3,906.7v29.8"/>
		<g id="Grupo_1099075-15" transform="translate(781.669 920.685)">
			<g>
				<defs>
					<rect id="SVGID_00000072979203884251954170000004408597981296959148_" x="0" y="0" width="21.3" height="18.8"/>
				</defs>
				<clipPath id="SVGID_00000165234743978443733740000008577775417099743882_">
					<use xlink:href="#SVGID_00000072979203884251954170000004408597981296959148_"  style="overflow:visible;"/>
				</clipPath>
				<g id="Grupo_1099074-15" style="clip-path:url(#SVGID_00000165234743978443733740000008577775417099743882_);">
					<path id="Trazado_873497-15" class="st12" d="M21,0.6c-6.4,3.8-10.3,10.8-10.3,18.2c0-7.5-3.9-14.4-10.3-18.2"/>
				</g>
			</g>
		</g>
	</g>
	<text transform="matrix(1 0 0 1 484.333 714)" class="st7 st9 st30">Agua, carbohidratos, fibra, </text>
	<text transform="matrix(1 0 0 1 484.333 732)" class="st7 st9 st30">proteínas, vitaminas, minerales</text>
	<text transform="matrix(1 0 0 1 484.333 860.578)" class="st7 st9 st30">Hoja, raíz, bulbos, brotes, </text>
	<text transform="matrix(1 0 0 1 484.333 878.578)" class="st7 st9 st30">inflorescencia, tubérculo</text>
	<text transform="matrix(1 0 0 1 484.333 917.145)" class="st7 st9 st30">Terpenes, fenoles, troles, </text>
	<text transform="matrix(1 0 0 1 484.333 935.145)" class="st7 st9 st30">lígnanos</text>
	<text transform="matrix(1 0 0 1 484.333 769.289)" class="st7 st9 st30">Semillas, recolección </text>
	<text transform="matrix(1 0 0 1 484.333 787.289)" class="st7 st9 st30">climatéricas y no climatéricas, </text>
	<text transform="matrix(1 0 0 1 484.333 805.289)" class="st7 st9 st30">frutas cítricas, tropicales, del </text>
	<text transform="matrix(1 0 0 1 484.333 823.289)" class="st7 st9 st30">bosque, secas</text>
	<path id="Rectángulo_409546" class="st31" d="M1124.4,590.7h272.1c6.1,0,11,4.9,11,11v24.6c0,6.1-4.9,11-11,11h-272.1
		c-6.1,0-11-4.9-11-11v-24.6C1113.4,595.7,1118.4,590.7,1124.4,590.7z"/>
	<text transform="matrix(1 0 0 1 1143.0861 608.402)" class="st7 st5 st8">Ingredientes para la preparación</text>
	<text transform="matrix(1 0 0 1 1211.6641 632.402)" class="st7 st5 st8">de conservas</text>
	<g id="Grupo_1116791" transform="translate(346.19 -123.07)">
		<path id="Trazado_873496-19" class="st10" d="M792.3,814.7v253.4"/>
	</g>
	<g id="Grupo_1116792" transform="translate(209.571 1491.72) rotate(-90)">
		<path id="Trazado_873496-20" class="st10" d="M792.3,928.4V947"/>
		<g id="Grupo_1099075-16" transform="translate(785.085 934.228)">
			<g>
				<defs>
					<rect id="SVGID_00000172441712457570013630000010904379825698137232_" x="0.9" y="-0.9" width="12.8" height="14.5"/>
				</defs>
				<clipPath id="SVGID_00000080183090453068224420000003207462346883326850_">
					<use xlink:href="#SVGID_00000172441712457570013630000010904379825698137232_"  style="overflow:visible;"/>
				</clipPath>
				
					<g id="Grupo_1099074-16" transform="translate(0 0)" style="clip-path:url(#SVGID_00000080183090453068224420000003207462346883326850_);">
					<path id="Trazado_873497-16" class="st12" d="M14.3,0.4c-4.4,2.6-7,7.3-7,12.4c0-5.1-2.7-9.8-7-12.4"/>
				</g>
			</g>
		</g>
	</g>
	<g id="Grupo_1116793" transform="translate(209.571 1637.021) rotate(-90)">
		<path id="Trazado_873496-21" class="st10" d="M792.3,928.4V947"/>
		<g id="Grupo_1099075-17" transform="translate(785.085 934.228)">
			<g>
				<defs>
					<rect id="SVGID_00000078026583306696449850000005166427844717412006_" x="0.9" y="-0.9" width="12.8" height="14.5"/>
				</defs>
				<clipPath id="SVGID_00000173124961096868565870000013596689130465418405_">
					<use xlink:href="#SVGID_00000078026583306696449850000005166427844717412006_"  style="overflow:visible;"/>
				</clipPath>
				
					<g id="Grupo_1099074-17" transform="translate(0 0)" style="clip-path:url(#SVGID_00000173124961096868565870000013596689130465418405_);">
					<path id="Trazado_873497-17" class="st12" d="M14.3,0.4c-4.4,2.6-7,7.3-7,12.4c0-5.1-2.7-9.8-7-12.4"/>
				</g>
			</g>
		</g>
	</g>
	<g id="Grupo_1116794" transform="translate(209.571 1547.009) rotate(-90)">
		<path id="Trazado_873496-22" class="st10" d="M792.3,928.4V947"/>
		<g id="Grupo_1099075-18" transform="translate(785.085 934.228)">
			<g>
				<defs>
					<rect id="SVGID_00000161627544910517113560000006760943116090975118_" x="0.9" y="-0.9" width="12.8" height="14.5"/>
				</defs>
				<clipPath id="SVGID_00000060008676410378841160000013231252306775911339_">
					<use xlink:href="#SVGID_00000161627544910517113560000006760943116090975118_"  style="overflow:visible;"/>
				</clipPath>
				
					<g id="Grupo_1099074-18" transform="translate(0 0)" style="clip-path:url(#SVGID_00000060008676410378841160000013231252306775911339_);">
					<path id="Trazado_873497-18" class="st12" d="M14.3,0.4c-4.4,2.6-7,7.3-7,12.4c0-5.1-2.7-9.8-7-12.4"/>
				</g>
			</g>
		</g>
	</g>
	<g id="Grupo_1116795" transform="translate(209.571 1692.31) rotate(-90)">
		<path id="Trazado_873496-23" class="st10" d="M792.3,928.4V947"/>
		<g id="Grupo_1099075-19" transform="translate(785.085 934.228)">
			<g>
				<defs>
					<rect id="SVGID_00000134238687737476705780000007374555184324041393_" x="0.9" y="-0.9" width="12.8" height="14.5"/>
				</defs>
				<clipPath id="SVGID_00000160870679645887397620000014635347416228609409_">
					<use xlink:href="#SVGID_00000134238687737476705780000007374555184324041393_"  style="overflow:visible;"/>
				</clipPath>
				
					<g id="Grupo_1099074-19" transform="translate(0 0)" style="clip-path:url(#SVGID_00000160870679645887397620000014635347416228609409_);">
					<path id="Trazado_873497-19" class="st12" d="M14.3,0.4c-4.4,2.6-7,7.3-7,12.4c0-5.1-2.7-9.8-7-12.4"/>
				</g>
			</g>
		</g>
	</g>
	<path id="Trazado_908486" class="st10" d="M1259.5,655.5v10h-121v33.7"/>
	<path id="Rectángulo_409547" class="st36" d="M1174.2,678.1h169.7c6.1,0,11,4.9,11,11v27.4c0,6.1-4.9,11-11,11h-169.7
		c-6.1,0-11-4.9-11-11v-27.4C1163.2,683.1,1168.1,678.1,1174.2,678.1z"/>
	<path id="Rectángulo_409548" class="st36" d="M1174.2,733.4h169.7c6.1,0,11,4.9,11,11v16.4c0,6.1-4.9,11-11,11h-169.7
		c-6.1,0-11-4.9-11-11v-16.4C1163.2,738.3,1168.1,733.4,1174.2,733.4z"/>
	<path id="Rectángulo_409549" class="st36" d="M1174.2,878.7h169.7c6.1,0,11,4.9,11,11v16.4c0,6.1-4.9,11-11,11h-169.7
		c-6.1,0-11-4.9-11-11v-16.4C1163.2,883.6,1168.1,878.7,1174.2,878.7z"/>
	<text transform="matrix(1 0 0 1 1170.194 706.139)" class="st7 st9 st8">Azúcar y edulcorantes</text>
	<text transform="matrix(1 0 0 1 1170.194 757.428)" class="st7 st9 st8">Sustancias coagulantes</text>
	<text transform="matrix(1 0 0 1 1170.194 902.729)" class="st7 st9 st8">Conservantes</text>
	<g id="Grupo_1116796" transform="translate(209.571 1592.015) rotate(-90)">
		<path id="Trazado_873496-24" class="st10" d="M792.3,928.4V947"/>
		<g id="Grupo_1099075-20" transform="translate(785.085 934.228)">
			<g>
				<defs>
					<rect id="SVGID_00000147180473754545970060000017097690542596056206_" x="0.9" y="-0.9" width="12.8" height="14.5"/>
				</defs>
				<clipPath id="SVGID_00000119813068564680705700000015247051656805708446_">
					<use xlink:href="#SVGID_00000147180473754545970060000017097690542596056206_"  style="overflow:visible;"/>
				</clipPath>
				
					<g id="Grupo_1099074-20" transform="translate(0 0)" style="clip-path:url(#SVGID_00000119813068564680705700000015247051656805708446_);">
					<path id="Trazado_873497-20" class="st12" d="M14.3,0.4c-4.4,2.6-7,7.3-7,12.4c0-5.1-2.7-9.8-7-12.4"/>
				</g>
			</g>
		</g>
	</g>
	<g id="Grupo_1116799" transform="translate(36.284 1696.033) rotate(-90)">
		<path id="Trazado_873496-25" class="st10" d="M792.3,928.4V947"/>
		<g id="Grupo_1099075-21" transform="translate(785.085 934.228)">
			<g>
				<defs>
					<rect id="SVGID_00000172437872614164587480000015853510725601399217_" x="0.9" y="-0.9" width="12.8" height="14.5"/>
				</defs>
				<clipPath id="SVGID_00000064349955592675897190000003150331684825252480_">
					<use xlink:href="#SVGID_00000172437872614164587480000015853510725601399217_"  style="overflow:visible;"/>
				</clipPath>
				
					<g id="Grupo_1099074-21" transform="translate(0 0)" style="clip-path:url(#SVGID_00000064349955592675897190000003150331684825252480_);">
					<path id="Trazado_873497-21" class="st12" d="M14.3,0.4c-4.4,2.6-7,7.3-7,12.4c0-5.1-2.7-9.8-7-12.4"/>
				</g>
			</g>
		</g>
	</g>
	<g id="Grupo_1116800" transform="translate(36.284 1740.033) rotate(-90)">
		<path id="Trazado_873496-26" class="st10" d="M792.3,928.4V947"/>
		<g id="Grupo_1099075-22" transform="translate(785.085 934.228)">
			<g>
				<defs>
					<rect id="SVGID_00000163036648506889816730000002893997933629184154_" x="0.9" y="-0.9" width="12.8" height="14.5"/>
				</defs>
				<clipPath id="SVGID_00000093162455134004313900000007128528781472837823_">
					<use xlink:href="#SVGID_00000163036648506889816730000002893997933629184154_"  style="overflow:visible;"/>
				</clipPath>
				
					<g id="Grupo_1099074-22" transform="translate(0 0)" style="clip-path:url(#SVGID_00000093162455134004313900000007128528781472837823_);">
					<path id="Trazado_873497-22" class="st12" d="M14.3,0.4c-4.4,2.6-7,7.3-7,12.4c0-5.1-2.7-9.8-7-12.4"/>
				</g>
			</g>
		</g>
	</g>
	<g id="Grupo_1116801" transform="translate(36.284 1784.033) rotate(-90)">
		<path id="Trazado_873496-27" class="st10" d="M792.3,928.4V947"/>
		<g id="Grupo_1099075-23" transform="translate(785.085 934.228)">
			<g>
				<defs>
					<rect id="SVGID_00000018232897079093332960000005741268646741788566_" x="0.9" y="-0.9" width="12.8" height="14.5"/>
				</defs>
				<clipPath id="SVGID_00000031178131474957762220000012417925120276758924_">
					<use xlink:href="#SVGID_00000018232897079093332960000005741268646741788566_"  style="overflow:visible;"/>
				</clipPath>
				
					<g id="Grupo_1099074-23" transform="translate(0 0)" style="clip-path:url(#SVGID_00000031178131474957762220000012417925120276758924_);">
					<path id="Trazado_873497-23" class="st12" d="M14.3,0.4c-4.4,2.6-7,7.3-7,12.4c0-5.1-2.7-9.8-7-12.4"/>
				</g>
			</g>
		</g>
	</g>
	<g id="Grupo_1116797" transform="translate(209.571 1737.316) rotate(-90)">
		<path id="Trazado_873496-28" class="st10" d="M792.3,928.4V947"/>
		<g id="Grupo_1099075-24" transform="translate(785.085 934.228)">
			<g>
				<defs>
					<rect id="SVGID_00000067237308255778869550000015793598281604616590_" x="0.9" y="-0.9" width="12.8" height="14.5"/>
				</defs>
				<clipPath id="SVGID_00000025441443301547564130000015575162554127009155_">
					<use xlink:href="#SVGID_00000067237308255778869550000015793598281604616590_"  style="overflow:visible;"/>
				</clipPath>
				
					<g id="Grupo_1099074-24" transform="translate(0 0)" style="clip-path:url(#SVGID_00000025441443301547564130000015575162554127009155_);">
					<path id="Trazado_873497-24" class="st12" d="M14.3,0.4c-4.4,2.6-7,7.3-7,12.4c0-5.1-2.7-9.8-7-12.4"/>
				</g>
			</g>
		</g>
	</g>
	<path id="Rectángulo_409550" class="st36" d="M1174.2,778.4h169.7c6.1,0,11,4.9,11,11v16.4c0,6.1-4.9,11-11,11h-169.7
		c-6.1,0-11-4.9-11-11v-16.4C1163.2,783.4,1168.1,778.4,1174.2,778.4z"/>
	<path id="Rectángulo_409553" class="st42" d="M1000.9,882.4h87.7c6.1,0,11,4.9,11,11v16.4c0,6.1-4.9,11-11,11h-87.7
		c-6.1,0-11-4.9-11-11v-16.4C989.9,887.4,994.8,882.4,1000.9,882.4z"/>
	<path id="Rectángulo_409554" class="st42" d="M1000.9,926.4h87.7c6.1,0,11,4.9,11,11v16.4c0,6.1-4.9,11-11,11h-87.7
		c-6.1,0-11-4.9-11-11v-16.4C989.9,931.4,994.8,926.4,1000.9,926.4z"/>
	<path id="Rectángulo_409555" class="st42" d="M1000.9,970.4h113.7c6.1,0,11,4.9,11,11v16.4c0,6.1-4.9,11-11,11h-113.7
		c-6.1,0-11-4.9-11-11v-16.4C989.9,975.4,994.8,970.4,1000.9,970.4z"/>
	<path id="Rectángulo_409551" class="st36" d="M1174.2,829.7h169.7c6.1,0,11,4.9,11,11v16.4c0,6.1-4.9,11-11,11h-169.7
		c-6.1,0-11-4.9-11-11v-16.4C1163.2,834.6,1168.1,829.7,1174.2,829.7z"/>
	<path id="Rectángulo_409552" class="st36" d="M1174.2,923.7h169.7c6.1,0,11,4.9,11,11v16.4c0,6.1-4.9,11-11,11h-169.7
		c-6.1,0-11-4.9-11-11v-16.4C1163.2,928.7,1168.1,923.7,1174.2,923.7z"/>
	<text transform="matrix(1 0 0 1 1170.194 802.434)" class="st7 st9 st8">Sal</text>
	<text transform="matrix(1 0 0 1 996.907 906.451)" class="st7 st9 st8">Envasado</text>
	<text transform="matrix(1 0 0 1 996.907 950.451)" class="st7 st9 st8">Esterilización</text>
	<text transform="matrix(1 0 0 1 996.907 994.451)" class="st7 st9 st8">Almacenamiento</text>
	<text transform="matrix(1 0 0 1 1170.194 853.723)" class="st7 st9 st8">Vinagre</text>
	<text transform="matrix(1 0 0 1 1170.194 947.734)" class="st7 st9 st8">Aditivos</text>
	<path id="Trazado_908487" class="st43" d="M953.3,808.6h11.4v182.9"/>
</g>
</svg>
